<mxfile host="Electron" agent="Mozilla/5.0 (Windows NT 10.0; Win64; x64) AppleWebKit/537.36 (KHTML, like Gecko) draw.io/26.0.4 Chrome/128.0.6613.186 Electron/32.2.5 Safari/537.36" version="26.0.4">
  <diagram name="Страница — 1" id="SSLjTsNChRdYj0SAPIkA">
    <mxGraphModel dx="1075" dy="598" grid="1" gridSize="10" guides="1" tooltips="1" connect="1" arrows="1" fold="1" page="1" pageScale="1" pageWidth="827" pageHeight="1169" math="0" shadow="0">
      <root>
        <mxCell id="0" />
        <mxCell id="1" parent="0" />
        <mxCell id="i2YHMn8cQHAYRBeFqTsy-4" style="edgeStyle=orthogonalEdgeStyle;rounded=0;orthogonalLoop=1;jettySize=auto;html=1;entryX=0.5;entryY=0;entryDx=0;entryDy=0;" edge="1" parent="1" source="i2YHMn8cQHAYRBeFqTsy-1" target="i2YHMn8cQHAYRBeFqTsy-3">
          <mxGeometry relative="1" as="geometry" />
        </mxCell>
        <mxCell id="i2YHMn8cQHAYRBeFqTsy-1" value="Начало" style="ellipse;whiteSpace=wrap;html=1;" vertex="1" parent="1">
          <mxGeometry x="250" y="10" width="60" height="30" as="geometry" />
        </mxCell>
        <mxCell id="i2YHMn8cQHAYRBeFqTsy-2" value="&lt;div&gt;#include &amp;lt;iostream&amp;gt;&lt;/div&gt;&lt;div&gt;#include &amp;lt;clocale&amp;gt;&lt;/div&gt;&lt;div&gt;#include &amp;lt;string&amp;gt;&lt;/div&gt;&lt;div&gt;#include &amp;lt;vector&amp;gt;&lt;/div&gt;&lt;div&gt;using namespace std;&lt;/div&gt;" style="text;html=1;align=center;verticalAlign=middle;whiteSpace=wrap;rounded=0;" vertex="1" parent="1">
          <mxGeometry x="330" y="10" width="130" height="80" as="geometry" />
        </mxCell>
        <mxCell id="i2YHMn8cQHAYRBeFqTsy-12" style="edgeStyle=orthogonalEdgeStyle;rounded=0;orthogonalLoop=1;jettySize=auto;html=1;" edge="1" parent="1" source="i2YHMn8cQHAYRBeFqTsy-3" target="i2YHMn8cQHAYRBeFqTsy-9">
          <mxGeometry relative="1" as="geometry" />
        </mxCell>
        <mxCell id="i2YHMn8cQHAYRBeFqTsy-3" value="int main()" style="shape=process;whiteSpace=wrap;html=1;backgroundOutline=1;" vertex="1" parent="1">
          <mxGeometry x="245" y="80" width="70" height="20" as="geometry" />
        </mxCell>
        <mxCell id="i2YHMn8cQHAYRBeFqTsy-5" value="" style="endArrow=none;dashed=1;html=1;rounded=0;entryX=0;entryY=0.5;entryDx=0;entryDy=0;" edge="1" parent="1" target="i2YHMn8cQHAYRBeFqTsy-2">
          <mxGeometry width="50" height="50" relative="1" as="geometry">
            <mxPoint x="280" y="50" as="sourcePoint" />
            <mxPoint x="370" y="130" as="targetPoint" />
          </mxGeometry>
        </mxCell>
        <mxCell id="i2YHMn8cQHAYRBeFqTsy-6" value="" style="endArrow=none;html=1;rounded=0;entryX=1;entryY=0;entryDx=0;entryDy=0;" edge="1" parent="1" target="i2YHMn8cQHAYRBeFqTsy-2">
          <mxGeometry width="50" height="50" relative="1" as="geometry">
            <mxPoint x="330" y="10" as="sourcePoint" />
            <mxPoint x="370" y="130" as="targetPoint" />
          </mxGeometry>
        </mxCell>
        <mxCell id="i2YHMn8cQHAYRBeFqTsy-7" value="" style="endArrow=none;html=1;rounded=0;exitX=1;exitY=1;exitDx=0;exitDy=0;" edge="1" parent="1" source="i2YHMn8cQHAYRBeFqTsy-2">
          <mxGeometry width="50" height="50" relative="1" as="geometry">
            <mxPoint x="320" y="180" as="sourcePoint" />
            <mxPoint x="330" y="90" as="targetPoint" />
          </mxGeometry>
        </mxCell>
        <mxCell id="i2YHMn8cQHAYRBeFqTsy-8" value="" style="endArrow=none;html=1;rounded=0;entryX=0;entryY=0;entryDx=0;entryDy=0;exitX=0;exitY=1;exitDx=0;exitDy=0;" edge="1" parent="1" source="i2YHMn8cQHAYRBeFqTsy-2" target="i2YHMn8cQHAYRBeFqTsy-2">
          <mxGeometry width="50" height="50" relative="1" as="geometry">
            <mxPoint x="320" y="180" as="sourcePoint" />
            <mxPoint x="370" y="130" as="targetPoint" />
          </mxGeometry>
        </mxCell>
        <mxCell id="i2YHMn8cQHAYRBeFqTsy-13" style="edgeStyle=orthogonalEdgeStyle;rounded=0;orthogonalLoop=1;jettySize=auto;html=1;" edge="1" parent="1" source="i2YHMn8cQHAYRBeFqTsy-9" target="i2YHMn8cQHAYRBeFqTsy-11">
          <mxGeometry relative="1" as="geometry" />
        </mxCell>
        <mxCell id="i2YHMn8cQHAYRBeFqTsy-9" value="setlocale(0, &quot;&quot;);" style="rounded=0;whiteSpace=wrap;html=1;" vertex="1" parent="1">
          <mxGeometry x="235" y="120" width="90" height="20" as="geometry" />
        </mxCell>
        <mxCell id="i2YHMn8cQHAYRBeFqTsy-19" style="edgeStyle=orthogonalEdgeStyle;rounded=0;orthogonalLoop=1;jettySize=auto;html=1;entryX=0.5;entryY=0;entryDx=0;entryDy=0;" edge="1" parent="1" source="i2YHMn8cQHAYRBeFqTsy-11" target="i2YHMn8cQHAYRBeFqTsy-18">
          <mxGeometry relative="1" as="geometry" />
        </mxCell>
        <mxCell id="i2YHMn8cQHAYRBeFqTsy-11" value="string text, mask;" style="rounded=0;whiteSpace=wrap;html=1;" vertex="1" parent="1">
          <mxGeometry x="230" y="160" width="100" height="20" as="geometry" />
        </mxCell>
        <mxCell id="i2YHMn8cQHAYRBeFqTsy-14" value="{" style="text;html=1;align=center;verticalAlign=middle;whiteSpace=wrap;rounded=0;" vertex="1" parent="1">
          <mxGeometry x="260" y="100" width="20" height="20" as="geometry" />
        </mxCell>
        <mxCell id="i2YHMn8cQHAYRBeFqTsy-15" value="}" style="text;html=1;align=center;verticalAlign=middle;whiteSpace=wrap;rounded=0;" vertex="1" parent="1">
          <mxGeometry x="280" y="770" width="20" height="20" as="geometry" />
        </mxCell>
        <mxCell id="i2YHMn8cQHAYRBeFqTsy-16" value="1" style="text;html=1;align=center;verticalAlign=middle;whiteSpace=wrap;rounded=0;" vertex="1" parent="1">
          <mxGeometry x="120" y="360" width="20" height="20" as="geometry" />
        </mxCell>
        <mxCell id="i2YHMn8cQHAYRBeFqTsy-17" value="0" style="text;html=1;align=center;verticalAlign=middle;whiteSpace=wrap;rounded=0;" vertex="1" parent="1">
          <mxGeometry x="420" y="360" width="20" height="20" as="geometry" />
        </mxCell>
        <mxCell id="i2YHMn8cQHAYRBeFqTsy-22" style="edgeStyle=orthogonalEdgeStyle;rounded=0;orthogonalLoop=1;jettySize=auto;html=1;entryX=0.5;entryY=0;entryDx=0;entryDy=0;" edge="1" parent="1" source="i2YHMn8cQHAYRBeFqTsy-18" target="i2YHMn8cQHAYRBeFqTsy-21">
          <mxGeometry relative="1" as="geometry" />
        </mxCell>
        <mxCell id="i2YHMn8cQHAYRBeFqTsy-18" value="cout &amp;lt;&amp;lt; &quot;Введите продложение (на английском): &quot;;" style="shape=parallelogram;perimeter=parallelogramPerimeter;whiteSpace=wrap;html=1;fixedSize=1;" vertex="1" parent="1">
          <mxGeometry x="120" y="200" width="320" height="20" as="geometry" />
        </mxCell>
        <mxCell id="i2YHMn8cQHAYRBeFqTsy-24" style="edgeStyle=orthogonalEdgeStyle;rounded=0;orthogonalLoop=1;jettySize=auto;html=1;" edge="1" parent="1" source="i2YHMn8cQHAYRBeFqTsy-21" target="i2YHMn8cQHAYRBeFqTsy-23">
          <mxGeometry relative="1" as="geometry" />
        </mxCell>
        <mxCell id="i2YHMn8cQHAYRBeFqTsy-21" value="getline(cin, text);" style="rounded=0;whiteSpace=wrap;html=1;" vertex="1" parent="1">
          <mxGeometry x="230" y="240" width="100" height="20" as="geometry" />
        </mxCell>
        <mxCell id="i2YHMn8cQHAYRBeFqTsy-26" style="edgeStyle=orthogonalEdgeStyle;rounded=0;orthogonalLoop=1;jettySize=auto;html=1;entryX=0.5;entryY=0;entryDx=0;entryDy=0;" edge="1" parent="1" source="i2YHMn8cQHAYRBeFqTsy-23" target="i2YHMn8cQHAYRBeFqTsy-25">
          <mxGeometry relative="1" as="geometry" />
        </mxCell>
        <mxCell id="i2YHMn8cQHAYRBeFqTsy-23" value="cout &amp;lt;&amp;lt; &quot;Введите маску (используйте &#39;*&#39; и &#39;?&#39; ): &quot;;" style="shape=parallelogram;perimeter=parallelogramPerimeter;whiteSpace=wrap;html=1;fixedSize=1;" vertex="1" parent="1">
          <mxGeometry x="125" y="280" width="310" height="20" as="geometry" />
        </mxCell>
        <mxCell id="i2YHMn8cQHAYRBeFqTsy-28" style="edgeStyle=orthogonalEdgeStyle;rounded=0;orthogonalLoop=1;jettySize=auto;html=1;entryX=0.5;entryY=0;entryDx=0;entryDy=0;" edge="1" parent="1" source="i2YHMn8cQHAYRBeFqTsy-25" target="i2YHMn8cQHAYRBeFqTsy-27">
          <mxGeometry relative="1" as="geometry" />
        </mxCell>
        <mxCell id="i2YHMn8cQHAYRBeFqTsy-25" value="getline(cin, mask);" style="rounded=0;whiteSpace=wrap;html=1;" vertex="1" parent="1">
          <mxGeometry x="225" y="320" width="110" height="20" as="geometry" />
        </mxCell>
        <mxCell id="i2YHMn8cQHAYRBeFqTsy-47" style="edgeStyle=orthogonalEdgeStyle;rounded=0;orthogonalLoop=1;jettySize=auto;html=1;" edge="1" parent="1" source="i2YHMn8cQHAYRBeFqTsy-27" target="i2YHMn8cQHAYRBeFqTsy-29">
          <mxGeometry relative="1" as="geometry">
            <Array as="points">
              <mxPoint x="120" y="380" />
            </Array>
          </mxGeometry>
        </mxCell>
        <mxCell id="i2YHMn8cQHAYRBeFqTsy-51" style="edgeStyle=orthogonalEdgeStyle;rounded=0;orthogonalLoop=1;jettySize=auto;html=1;" edge="1" parent="1" source="i2YHMn8cQHAYRBeFqTsy-27">
          <mxGeometry relative="1" as="geometry">
            <mxPoint x="280" y="430" as="targetPoint" />
            <Array as="points">
              <mxPoint x="440" y="380" />
              <mxPoint x="440" y="430" />
            </Array>
          </mxGeometry>
        </mxCell>
        <mxCell id="i2YHMn8cQHAYRBeFqTsy-27" value="if (!text.empty() &amp;amp;&amp;amp; text.back() == &#39;.&#39;)" style="rhombus;whiteSpace=wrap;html=1;" vertex="1" parent="1">
          <mxGeometry x="140" y="360" width="280" height="40" as="geometry" />
        </mxCell>
        <mxCell id="i2YHMn8cQHAYRBeFqTsy-50" style="edgeStyle=orthogonalEdgeStyle;rounded=0;orthogonalLoop=1;jettySize=auto;html=1;" edge="1" parent="1" source="i2YHMn8cQHAYRBeFqTsy-29">
          <mxGeometry relative="1" as="geometry">
            <mxPoint x="280" y="430" as="targetPoint" />
            <Array as="points">
              <mxPoint x="120" y="430" />
              <mxPoint x="270" y="430" />
            </Array>
          </mxGeometry>
        </mxCell>
        <mxCell id="i2YHMn8cQHAYRBeFqTsy-29" value="text.pop_back();" style="rounded=0;whiteSpace=wrap;html=1;" vertex="1" parent="1">
          <mxGeometry x="70" y="400" width="100" height="20" as="geometry" />
        </mxCell>
        <mxCell id="i2YHMn8cQHAYRBeFqTsy-41" style="edgeStyle=orthogonalEdgeStyle;rounded=0;orthogonalLoop=1;jettySize=auto;html=1;entryX=0.5;entryY=0;entryDx=0;entryDy=0;" edge="1" parent="1" source="i2YHMn8cQHAYRBeFqTsy-31" target="i2YHMn8cQHAYRBeFqTsy-37">
          <mxGeometry relative="1" as="geometry" />
        </mxCell>
        <mxCell id="i2YHMn8cQHAYRBeFqTsy-31" value="size_t end = text.find(&#39;_&#39;);" style="rounded=0;whiteSpace=wrap;html=1;" vertex="1" parent="1">
          <mxGeometry x="204.98999999999998" y="580" width="150" height="20" as="geometry" />
        </mxCell>
        <mxCell id="i2YHMn8cQHAYRBeFqTsy-36" style="edgeStyle=orthogonalEdgeStyle;rounded=0;orthogonalLoop=1;jettySize=auto;html=1;entryX=0.5;entryY=0;entryDx=0;entryDy=0;" edge="1" parent="1" source="i2YHMn8cQHAYRBeFqTsy-32" target="i2YHMn8cQHAYRBeFqTsy-31">
          <mxGeometry relative="1" as="geometry" />
        </mxCell>
        <mxCell id="i2YHMn8cQHAYRBeFqTsy-32" value="size_t start = 0;&amp;nbsp;" style="rounded=0;whiteSpace=wrap;html=1;" vertex="1" parent="1">
          <mxGeometry x="234.98999999999998" y="540" width="90" height="20" as="geometry" />
        </mxCell>
        <mxCell id="i2YHMn8cQHAYRBeFqTsy-78" style="edgeStyle=orthogonalEdgeStyle;rounded=0;orthogonalLoop=1;jettySize=auto;html=1;entryX=0.5;entryY=0;entryDx=0;entryDy=0;" edge="1" parent="1" source="i2YHMn8cQHAYRBeFqTsy-33" target="i2YHMn8cQHAYRBeFqTsy-77">
          <mxGeometry relative="1" as="geometry" />
        </mxCell>
        <mxCell id="i2YHMn8cQHAYRBeFqTsy-33" value="vector&amp;lt;string&amp;gt; words;&amp;nbsp;" style="rounded=0;whiteSpace=wrap;html=1;" vertex="1" parent="1">
          <mxGeometry x="214.98999999999998" y="454" width="130" height="20" as="geometry" />
        </mxCell>
        <mxCell id="i2YHMn8cQHAYRBeFqTsy-43" style="edgeStyle=orthogonalEdgeStyle;rounded=0;orthogonalLoop=1;jettySize=auto;html=1;entryX=0.5;entryY=0;entryDx=0;entryDy=0;" edge="1" parent="1" source="i2YHMn8cQHAYRBeFqTsy-37" target="i2YHMn8cQHAYRBeFqTsy-40">
          <mxGeometry relative="1" as="geometry" />
        </mxCell>
        <mxCell id="i2YHMn8cQHAYRBeFqTsy-57" style="edgeStyle=orthogonalEdgeStyle;rounded=0;orthogonalLoop=1;jettySize=auto;html=1;" edge="1" parent="1" source="i2YHMn8cQHAYRBeFqTsy-37" target="i2YHMn8cQHAYRBeFqTsy-56">
          <mxGeometry relative="1" as="geometry">
            <Array as="points">
              <mxPoint x="465" y="635" />
            </Array>
          </mxGeometry>
        </mxCell>
        <mxCell id="i2YHMn8cQHAYRBeFqTsy-37" value="while (end != string::npos)&amp;nbsp;" style="shape=hexagon;perimeter=hexagonPerimeter2;whiteSpace=wrap;html=1;fixedSize=1;" vertex="1" parent="1">
          <mxGeometry x="194.98999999999998" y="625" width="170" height="20" as="geometry" />
        </mxCell>
        <mxCell id="i2YHMn8cQHAYRBeFqTsy-46" style="edgeStyle=orthogonalEdgeStyle;rounded=0;orthogonalLoop=1;jettySize=auto;html=1;" edge="1" parent="1" source="i2YHMn8cQHAYRBeFqTsy-38">
          <mxGeometry relative="1" as="geometry">
            <mxPoint x="279.99" y="610" as="targetPoint" />
            <Array as="points">
              <mxPoint x="279.99" y="790" />
              <mxPoint x="139.98999999999998" y="790" />
            </Array>
          </mxGeometry>
        </mxCell>
        <mxCell id="i2YHMn8cQHAYRBeFqTsy-38" value="end = text.find(&#39;_&#39;, start);" style="rounded=0;whiteSpace=wrap;html=1;" vertex="1" parent="1">
          <mxGeometry x="209.98999999999998" y="750" width="140" height="20" as="geometry" />
        </mxCell>
        <mxCell id="i2YHMn8cQHAYRBeFqTsy-45" style="edgeStyle=orthogonalEdgeStyle;rounded=0;orthogonalLoop=1;jettySize=auto;html=1;entryX=0.5;entryY=0;entryDx=0;entryDy=0;" edge="1" parent="1" source="i2YHMn8cQHAYRBeFqTsy-39" target="i2YHMn8cQHAYRBeFqTsy-38">
          <mxGeometry relative="1" as="geometry" />
        </mxCell>
        <mxCell id="i2YHMn8cQHAYRBeFqTsy-39" value="start = end + 1;" style="rounded=0;whiteSpace=wrap;html=1;" vertex="1" parent="1">
          <mxGeometry x="234.98999999999998" y="710" width="90" height="20" as="geometry" />
        </mxCell>
        <mxCell id="i2YHMn8cQHAYRBeFqTsy-44" style="edgeStyle=orthogonalEdgeStyle;rounded=0;orthogonalLoop=1;jettySize=auto;html=1;entryX=0.5;entryY=0;entryDx=0;entryDy=0;" edge="1" parent="1" source="i2YHMn8cQHAYRBeFqTsy-40" target="i2YHMn8cQHAYRBeFqTsy-39">
          <mxGeometry relative="1" as="geometry" />
        </mxCell>
        <mxCell id="i2YHMn8cQHAYRBeFqTsy-40" value="words.push_back(text.substr(start, end - start));" style="rounded=0;whiteSpace=wrap;html=1;" vertex="1" parent="1">
          <mxGeometry x="149.98999999999998" y="670" width="260" height="20" as="geometry" />
        </mxCell>
        <mxCell id="i2YHMn8cQHAYRBeFqTsy-52" value="" style="endArrow=classic;html=1;rounded=0;entryX=0.5;entryY=0;entryDx=0;entryDy=0;" edge="1" parent="1" target="i2YHMn8cQHAYRBeFqTsy-33">
          <mxGeometry width="50" height="50" relative="1" as="geometry">
            <mxPoint x="280" y="430" as="sourcePoint" />
            <mxPoint x="370" y="530" as="targetPoint" />
          </mxGeometry>
        </mxCell>
        <mxCell id="i2YHMn8cQHAYRBeFqTsy-53" value="{" style="text;html=1;align=center;verticalAlign=middle;whiteSpace=wrap;rounded=0;" vertex="1" parent="1">
          <mxGeometry x="245" y="645" width="20" height="20" as="geometry" />
        </mxCell>
        <mxCell id="i2YHMn8cQHAYRBeFqTsy-54" value="1" style="text;html=1;align=center;verticalAlign=middle;whiteSpace=wrap;rounded=0;" vertex="1" parent="1">
          <mxGeometry x="260" y="645" width="20" height="20" as="geometry" />
        </mxCell>
        <mxCell id="i2YHMn8cQHAYRBeFqTsy-55" value="0" style="text;html=1;align=center;verticalAlign=middle;whiteSpace=wrap;rounded=0;" vertex="1" parent="1">
          <mxGeometry x="541.99" y="860" width="20" height="20" as="geometry" />
        </mxCell>
        <mxCell id="i2YHMn8cQHAYRBeFqTsy-60" style="edgeStyle=orthogonalEdgeStyle;rounded=0;orthogonalLoop=1;jettySize=auto;html=1;entryX=0.5;entryY=0;entryDx=0;entryDy=0;" edge="1" parent="1" source="i2YHMn8cQHAYRBeFqTsy-56" target="i2YHMn8cQHAYRBeFqTsy-58">
          <mxGeometry relative="1" as="geometry" />
        </mxCell>
        <mxCell id="i2YHMn8cQHAYRBeFqTsy-56" value="words.push_back(text.substr(start));" style="rounded=0;whiteSpace=wrap;html=1;" vertex="1" parent="1">
          <mxGeometry x="364.99" y="750" width="200" height="20" as="geometry" />
        </mxCell>
        <mxCell id="i2YHMn8cQHAYRBeFqTsy-62" style="edgeStyle=orthogonalEdgeStyle;rounded=0;orthogonalLoop=1;jettySize=auto;html=1;entryX=0.5;entryY=0;entryDx=0;entryDy=0;" edge="1" parent="1" source="i2YHMn8cQHAYRBeFqTsy-58" target="i2YHMn8cQHAYRBeFqTsy-61">
          <mxGeometry relative="1" as="geometry" />
        </mxCell>
        <mxCell id="i2YHMn8cQHAYRBeFqTsy-58" value="&amp;nbsp;cout &amp;lt;&amp;lt; &quot;Слова, подходящие маске: &quot;;" style="shape=parallelogram;perimeter=parallelogramPerimeter;whiteSpace=wrap;html=1;fixedSize=1;" vertex="1" parent="1">
          <mxGeometry x="337.49" y="790" width="255.01" height="16" as="geometry" />
        </mxCell>
        <mxCell id="i2YHMn8cQHAYRBeFqTsy-64" style="edgeStyle=orthogonalEdgeStyle;rounded=0;orthogonalLoop=1;jettySize=auto;html=1;entryX=0.5;entryY=0;entryDx=0;entryDy=0;" edge="1" parent="1" source="i2YHMn8cQHAYRBeFqTsy-61" target="i2YHMn8cQHAYRBeFqTsy-63">
          <mxGeometry relative="1" as="geometry" />
        </mxCell>
        <mxCell id="i2YHMn8cQHAYRBeFqTsy-74" style="edgeStyle=orthogonalEdgeStyle;rounded=0;orthogonalLoop=1;jettySize=auto;html=1;entryX=0.5;entryY=0;entryDx=0;entryDy=0;" edge="1" parent="1" source="i2YHMn8cQHAYRBeFqTsy-61" target="i2YHMn8cQHAYRBeFqTsy-70">
          <mxGeometry relative="1" as="geometry">
            <Array as="points">
              <mxPoint x="585" y="836" />
            </Array>
          </mxGeometry>
        </mxCell>
        <mxCell id="i2YHMn8cQHAYRBeFqTsy-61" value="for (const string&amp;amp; w : words)" style="shape=hexagon;perimeter=hexagonPerimeter2;whiteSpace=wrap;html=1;fixedSize=1;" vertex="1" parent="1">
          <mxGeometry x="375" y="826" width="180" height="20" as="geometry" />
        </mxCell>
        <mxCell id="i2YHMn8cQHAYRBeFqTsy-66" style="edgeStyle=orthogonalEdgeStyle;rounded=0;orthogonalLoop=1;jettySize=auto;html=1;entryX=0.5;entryY=0;entryDx=0;entryDy=0;" edge="1" parent="1" source="i2YHMn8cQHAYRBeFqTsy-63" target="i2YHMn8cQHAYRBeFqTsy-65">
          <mxGeometry relative="1" as="geometry">
            <Array as="points">
              <mxPoint x="375" y="881" />
            </Array>
          </mxGeometry>
        </mxCell>
        <mxCell id="i2YHMn8cQHAYRBeFqTsy-69" style="edgeStyle=orthogonalEdgeStyle;rounded=0;orthogonalLoop=1;jettySize=auto;html=1;" edge="1" parent="1" source="i2YHMn8cQHAYRBeFqTsy-63">
          <mxGeometry relative="1" as="geometry">
            <mxPoint x="470" y="926" as="targetPoint" />
            <Array as="points">
              <mxPoint x="560" y="881" />
              <mxPoint x="560" y="926" />
              <mxPoint x="510" y="926" />
            </Array>
          </mxGeometry>
        </mxCell>
        <mxCell id="i2YHMn8cQHAYRBeFqTsy-63" value="if (isMatch(w, mask))" style="rhombus;whiteSpace=wrap;html=1;" vertex="1" parent="1">
          <mxGeometry x="385" y="866" width="160" height="30" as="geometry" />
        </mxCell>
        <mxCell id="i2YHMn8cQHAYRBeFqTsy-68" style="edgeStyle=orthogonalEdgeStyle;rounded=0;orthogonalLoop=1;jettySize=auto;html=1;" edge="1" parent="1" source="i2YHMn8cQHAYRBeFqTsy-65">
          <mxGeometry relative="1" as="geometry">
            <mxPoint x="470" y="926" as="targetPoint" />
            <Array as="points">
              <mxPoint x="375" y="926" />
            </Array>
          </mxGeometry>
        </mxCell>
        <mxCell id="i2YHMn8cQHAYRBeFqTsy-65" value="cout &amp;lt;&amp;lt; w &amp;lt;&amp;lt; &quot; &quot;;" style="rounded=0;whiteSpace=wrap;html=1;" vertex="1" parent="1">
          <mxGeometry x="329.99" y="896" width="90" height="20" as="geometry" />
        </mxCell>
        <mxCell id="i2YHMn8cQHAYRBeFqTsy-67" value="1" style="text;html=1;align=center;verticalAlign=middle;whiteSpace=wrap;rounded=0;" vertex="1" parent="1">
          <mxGeometry x="375" y="856" width="20" height="20" as="geometry" />
        </mxCell>
        <mxCell id="i2YHMn8cQHAYRBeFqTsy-70" value="return 0;" style="ellipse;whiteSpace=wrap;html=1;" vertex="1" parent="1">
          <mxGeometry x="555" y="941" width="60" height="30" as="geometry" />
        </mxCell>
        <mxCell id="i2YHMn8cQHAYRBeFqTsy-72" value="}" style="text;html=1;align=center;verticalAlign=middle;whiteSpace=wrap;rounded=0;" vertex="1" parent="1">
          <mxGeometry x="615" y="946" width="20" height="20" as="geometry" />
        </mxCell>
        <mxCell id="i2YHMn8cQHAYRBeFqTsy-73" value="" style="endArrow=classic;html=1;rounded=0;entryX=0;entryY=0.5;entryDx=0;entryDy=0;" edge="1" parent="1" target="i2YHMn8cQHAYRBeFqTsy-61">
          <mxGeometry width="50" height="50" relative="1" as="geometry">
            <mxPoint x="470" y="926" as="sourcePoint" />
            <mxPoint x="340" y="826" as="targetPoint" />
            <Array as="points">
              <mxPoint x="470" y="936" />
              <mxPoint x="320" y="936" />
              <mxPoint x="320" y="836" />
            </Array>
          </mxGeometry>
        </mxCell>
        <mxCell id="i2YHMn8cQHAYRBeFqTsy-75" value="1" style="text;html=1;align=center;verticalAlign=middle;whiteSpace=wrap;rounded=0;" vertex="1" parent="1">
          <mxGeometry x="440" y="846" width="20" height="20" as="geometry" />
        </mxCell>
        <mxCell id="i2YHMn8cQHAYRBeFqTsy-76" value="0" style="text;html=1;align=center;verticalAlign=middle;whiteSpace=wrap;rounded=0;" vertex="1" parent="1">
          <mxGeometry x="555" y="816" width="20" height="20" as="geometry" />
        </mxCell>
        <mxCell id="i2YHMn8cQHAYRBeFqTsy-79" style="edgeStyle=orthogonalEdgeStyle;rounded=0;orthogonalLoop=1;jettySize=auto;html=1;entryX=0.5;entryY=0;entryDx=0;entryDy=0;" edge="1" parent="1" source="i2YHMn8cQHAYRBeFqTsy-77" target="i2YHMn8cQHAYRBeFqTsy-32">
          <mxGeometry relative="1" as="geometry" />
        </mxCell>
        <mxCell id="i2YHMn8cQHAYRBeFqTsy-77" value="&lt;font style=&quot;font-size: 18px;&quot;&gt;α&lt;/font&gt;" style="ellipse;whiteSpace=wrap;html=1;aspect=fixed;" vertex="1" parent="1">
          <mxGeometry x="265" y="490" width="30" height="30" as="geometry" />
        </mxCell>
        <mxCell id="i2YHMn8cQHAYRBeFqTsy-85" style="edgeStyle=orthogonalEdgeStyle;rounded=0;orthogonalLoop=1;jettySize=auto;html=1;entryX=0.5;entryY=0;entryDx=0;entryDy=0;" edge="1" parent="1" source="i2YHMn8cQHAYRBeFqTsy-80" target="i2YHMn8cQHAYRBeFqTsy-84">
          <mxGeometry relative="1" as="geometry" />
        </mxCell>
        <mxCell id="i2YHMn8cQHAYRBeFqTsy-80" value="bool isMatch(const string&amp;amp; word, const string&amp;amp; mask)" style="shape=process;whiteSpace=wrap;html=1;backgroundOutline=1;" vertex="1" parent="1">
          <mxGeometry x="670" y="40" width="360" height="20" as="geometry" />
        </mxCell>
        <mxCell id="i2YHMn8cQHAYRBeFqTsy-93" style="edgeStyle=orthogonalEdgeStyle;rounded=0;orthogonalLoop=1;jettySize=auto;html=1;" edge="1" parent="1" source="i2YHMn8cQHAYRBeFqTsy-81" target="i2YHMn8cQHAYRBeFqTsy-92">
          <mxGeometry relative="1" as="geometry" />
        </mxCell>
        <mxCell id="i2YHMn8cQHAYRBeFqTsy-81" value="size_t matchIdx = 0;" style="rounded=0;whiteSpace=wrap;html=1;" vertex="1" parent="1">
          <mxGeometry x="792.5" y="200" width="115" height="20" as="geometry" />
        </mxCell>
        <mxCell id="i2YHMn8cQHAYRBeFqTsy-90" style="edgeStyle=orthogonalEdgeStyle;rounded=0;orthogonalLoop=1;jettySize=auto;html=1;entryX=0.5;entryY=0;entryDx=0;entryDy=0;" edge="1" parent="1" source="i2YHMn8cQHAYRBeFqTsy-82" target="i2YHMn8cQHAYRBeFqTsy-81">
          <mxGeometry relative="1" as="geometry" />
        </mxCell>
        <mxCell id="i2YHMn8cQHAYRBeFqTsy-82" value="size_t starIdx = string::npos;" style="rounded=0;whiteSpace=wrap;html=1;" vertex="1" parent="1">
          <mxGeometry x="770" y="160" width="160" height="20" as="geometry" />
        </mxCell>
        <mxCell id="i2YHMn8cQHAYRBeFqTsy-87" style="edgeStyle=orthogonalEdgeStyle;rounded=0;orthogonalLoop=1;jettySize=auto;html=1;entryX=0.5;entryY=0;entryDx=0;entryDy=0;" edge="1" parent="1" source="i2YHMn8cQHAYRBeFqTsy-83" target="i2YHMn8cQHAYRBeFqTsy-82">
          <mxGeometry relative="1" as="geometry" />
        </mxCell>
        <mxCell id="i2YHMn8cQHAYRBeFqTsy-83" value="size_t maskPos = 0;" style="rounded=0;whiteSpace=wrap;html=1;" vertex="1" parent="1">
          <mxGeometry x="795" y="120" width="110" height="20" as="geometry" />
        </mxCell>
        <mxCell id="i2YHMn8cQHAYRBeFqTsy-86" style="edgeStyle=orthogonalEdgeStyle;rounded=0;orthogonalLoop=1;jettySize=auto;html=1;" edge="1" parent="1" source="i2YHMn8cQHAYRBeFqTsy-84" target="i2YHMn8cQHAYRBeFqTsy-83">
          <mxGeometry relative="1" as="geometry" />
        </mxCell>
        <mxCell id="i2YHMn8cQHAYRBeFqTsy-84" value="size_t wordPos = 0;" style="rounded=0;whiteSpace=wrap;html=1;" vertex="1" parent="1">
          <mxGeometry x="795" y="80" width="110" height="20" as="geometry" />
        </mxCell>
        <mxCell id="i2YHMn8cQHAYRBeFqTsy-91" value="{" style="text;html=1;align=center;verticalAlign=middle;whiteSpace=wrap;rounded=0;" vertex="1" parent="1">
          <mxGeometry x="827" y="60" width="20" height="20" as="geometry" />
        </mxCell>
        <mxCell id="i2YHMn8cQHAYRBeFqTsy-95" style="edgeStyle=orthogonalEdgeStyle;rounded=0;orthogonalLoop=1;jettySize=auto;html=1;entryX=0.5;entryY=0;entryDx=0;entryDy=0;" edge="1" parent="1" source="i2YHMn8cQHAYRBeFqTsy-92" target="i2YHMn8cQHAYRBeFqTsy-94">
          <mxGeometry relative="1" as="geometry" />
        </mxCell>
        <mxCell id="i2YHMn8cQHAYRBeFqTsy-144" style="edgeStyle=orthogonalEdgeStyle;rounded=0;orthogonalLoop=1;jettySize=auto;html=1;entryX=0.5;entryY=0;entryDx=0;entryDy=0;" edge="1" parent="1" source="i2YHMn8cQHAYRBeFqTsy-92" target="i2YHMn8cQHAYRBeFqTsy-139">
          <mxGeometry relative="1" as="geometry" />
        </mxCell>
        <mxCell id="i2YHMn8cQHAYRBeFqTsy-92" value="while (wordPos &amp;lt; word.size())" style="shape=hexagon;perimeter=hexagonPerimeter2;whiteSpace=wrap;html=1;fixedSize=1;" vertex="1" parent="1">
          <mxGeometry x="756" y="250" width="190" height="20" as="geometry" />
        </mxCell>
        <mxCell id="i2YHMn8cQHAYRBeFqTsy-99" style="edgeStyle=orthogonalEdgeStyle;rounded=0;orthogonalLoop=1;jettySize=auto;html=1;entryX=0.5;entryY=0;entryDx=0;entryDy=0;" edge="1" parent="1" source="i2YHMn8cQHAYRBeFqTsy-94" target="i2YHMn8cQHAYRBeFqTsy-97">
          <mxGeometry relative="1" as="geometry">
            <Array as="points">
              <mxPoint x="650" y="320" />
            </Array>
          </mxGeometry>
        </mxCell>
        <mxCell id="i2YHMn8cQHAYRBeFqTsy-104" style="edgeStyle=orthogonalEdgeStyle;rounded=0;orthogonalLoop=1;jettySize=auto;html=1;entryX=0.5;entryY=0;entryDx=0;entryDy=0;" edge="1" parent="1" source="i2YHMn8cQHAYRBeFqTsy-94" target="i2YHMn8cQHAYRBeFqTsy-103">
          <mxGeometry relative="1" as="geometry">
            <Array as="points">
              <mxPoint x="1055" y="320" />
            </Array>
          </mxGeometry>
        </mxCell>
        <mxCell id="i2YHMn8cQHAYRBeFqTsy-94" value="if (maskPos &amp;lt; mask.size() &amp;amp;&amp;amp; (mask[maskPos] == &#39;?&#39; || mask[maskPos] == word[wordPos]))" style="rhombus;whiteSpace=wrap;html=1;" vertex="1" parent="1">
          <mxGeometry x="670" y="290" width="360" height="60" as="geometry" />
        </mxCell>
        <mxCell id="i2YHMn8cQHAYRBeFqTsy-133" style="edgeStyle=orthogonalEdgeStyle;rounded=0;orthogonalLoop=1;jettySize=auto;html=1;" edge="1" parent="1" source="i2YHMn8cQHAYRBeFqTsy-96">
          <mxGeometry relative="1" as="geometry">
            <mxPoint x="850" y="530" as="targetPoint" />
            <Array as="points">
              <mxPoint x="650" y="530" />
            </Array>
          </mxGeometry>
        </mxCell>
        <mxCell id="i2YHMn8cQHAYRBeFqTsy-96" value="&amp;nbsp;maskPos++;" style="rounded=0;whiteSpace=wrap;html=1;" vertex="1" parent="1">
          <mxGeometry x="613" y="390" width="73" height="20" as="geometry" />
        </mxCell>
        <mxCell id="i2YHMn8cQHAYRBeFqTsy-98" style="edgeStyle=orthogonalEdgeStyle;rounded=0;orthogonalLoop=1;jettySize=auto;html=1;entryX=0.5;entryY=0;entryDx=0;entryDy=0;" edge="1" parent="1" source="i2YHMn8cQHAYRBeFqTsy-97" target="i2YHMn8cQHAYRBeFqTsy-96">
          <mxGeometry relative="1" as="geometry" />
        </mxCell>
        <mxCell id="i2YHMn8cQHAYRBeFqTsy-97" value="wordPos++;" style="rounded=0;whiteSpace=wrap;html=1;" vertex="1" parent="1">
          <mxGeometry x="610" y="350" width="80" height="20" as="geometry" />
        </mxCell>
        <mxCell id="i2YHMn8cQHAYRBeFqTsy-100" value="1" style="text;html=1;align=center;verticalAlign=middle;whiteSpace=wrap;rounded=0;" vertex="1" parent="1">
          <mxGeometry x="650" y="300" width="20" height="20" as="geometry" />
        </mxCell>
        <mxCell id="i2YHMn8cQHAYRBeFqTsy-101" value="0" style="text;html=1;align=center;verticalAlign=middle;whiteSpace=wrap;rounded=0;" vertex="1" parent="1">
          <mxGeometry x="1030" y="300" width="20" height="20" as="geometry" />
        </mxCell>
        <mxCell id="i2YHMn8cQHAYRBeFqTsy-102" value="{" style="text;html=1;align=center;verticalAlign=middle;whiteSpace=wrap;rounded=0;" vertex="1" parent="1">
          <mxGeometry x="630" y="320" width="20" height="20" as="geometry" />
        </mxCell>
        <mxCell id="i2YHMn8cQHAYRBeFqTsy-109" style="edgeStyle=orthogonalEdgeStyle;rounded=0;orthogonalLoop=1;jettySize=auto;html=1;entryX=0.5;entryY=0;entryDx=0;entryDy=0;" edge="1" parent="1" source="i2YHMn8cQHAYRBeFqTsy-103" target="i2YHMn8cQHAYRBeFqTsy-108">
          <mxGeometry relative="1" as="geometry">
            <Array as="points">
              <mxPoint x="910" y="370" />
            </Array>
          </mxGeometry>
        </mxCell>
        <mxCell id="i2YHMn8cQHAYRBeFqTsy-117" style="edgeStyle=orthogonalEdgeStyle;rounded=0;orthogonalLoop=1;jettySize=auto;html=1;entryX=0.5;entryY=0;entryDx=0;entryDy=0;" edge="1" parent="1" source="i2YHMn8cQHAYRBeFqTsy-103" target="i2YHMn8cQHAYRBeFqTsy-116">
          <mxGeometry relative="1" as="geometry">
            <Array as="points">
              <mxPoint x="1200" y="370" />
            </Array>
          </mxGeometry>
        </mxCell>
        <mxCell id="i2YHMn8cQHAYRBeFqTsy-103" value="else if (maskPos &amp;lt; mask.size() &amp;amp;&amp;amp; mask[maskPos] == &#39;*&#39;)" style="rhombus;whiteSpace=wrap;html=1;" vertex="1" parent="1">
          <mxGeometry x="930" y="340" width="250" height="60" as="geometry" />
        </mxCell>
        <mxCell id="i2YHMn8cQHAYRBeFqTsy-105" value="}" style="text;html=1;align=center;verticalAlign=middle;whiteSpace=wrap;rounded=0;" vertex="1" parent="1">
          <mxGeometry x="650" y="412" width="20" height="20" as="geometry" />
        </mxCell>
        <mxCell id="i2YHMn8cQHAYRBeFqTsy-131" style="edgeStyle=orthogonalEdgeStyle;rounded=0;orthogonalLoop=1;jettySize=auto;html=1;" edge="1" parent="1" source="i2YHMn8cQHAYRBeFqTsy-106">
          <mxGeometry relative="1" as="geometry">
            <mxPoint x="1060" y="520" as="targetPoint" />
            <Array as="points">
              <mxPoint x="910" y="520" />
            </Array>
          </mxGeometry>
        </mxCell>
        <mxCell id="i2YHMn8cQHAYRBeFqTsy-106" value="maskPos++;" style="rounded=0;whiteSpace=wrap;html=1;" vertex="1" parent="1">
          <mxGeometry x="875" y="470" width="70" height="20" as="geometry" />
        </mxCell>
        <mxCell id="i2YHMn8cQHAYRBeFqTsy-111" style="edgeStyle=orthogonalEdgeStyle;rounded=0;orthogonalLoop=1;jettySize=auto;html=1;entryX=0.5;entryY=0;entryDx=0;entryDy=0;" edge="1" parent="1" source="i2YHMn8cQHAYRBeFqTsy-107" target="i2YHMn8cQHAYRBeFqTsy-106">
          <mxGeometry relative="1" as="geometry" />
        </mxCell>
        <mxCell id="i2YHMn8cQHAYRBeFqTsy-107" value="matchIdx = wordPos;" style="rounded=0;whiteSpace=wrap;html=1;" vertex="1" parent="1">
          <mxGeometry x="850" y="429" width="120" height="20" as="geometry" />
        </mxCell>
        <mxCell id="i2YHMn8cQHAYRBeFqTsy-110" style="edgeStyle=orthogonalEdgeStyle;rounded=0;orthogonalLoop=1;jettySize=auto;html=1;" edge="1" parent="1" source="i2YHMn8cQHAYRBeFqTsy-108" target="i2YHMn8cQHAYRBeFqTsy-107">
          <mxGeometry relative="1" as="geometry" />
        </mxCell>
        <mxCell id="i2YHMn8cQHAYRBeFqTsy-108" value="starIdx = maskPos;" style="rounded=0;whiteSpace=wrap;html=1;" vertex="1" parent="1">
          <mxGeometry x="855" y="390" width="110" height="20" as="geometry" />
        </mxCell>
        <mxCell id="i2YHMn8cQHAYRBeFqTsy-112" value="{" style="text;html=1;align=center;verticalAlign=middle;whiteSpace=wrap;rounded=0;" vertex="1" parent="1">
          <mxGeometry x="887.5" y="370" width="20" height="20" as="geometry" />
        </mxCell>
        <mxCell id="i2YHMn8cQHAYRBeFqTsy-113" value="1" style="text;html=1;align=center;verticalAlign=middle;whiteSpace=wrap;rounded=0;" vertex="1" parent="1">
          <mxGeometry x="907.5" y="350" width="20" height="20" as="geometry" />
        </mxCell>
        <mxCell id="i2YHMn8cQHAYRBeFqTsy-114" value="0" style="text;html=1;align=center;verticalAlign=middle;whiteSpace=wrap;rounded=0;" vertex="1" parent="1">
          <mxGeometry x="1180" y="350" width="20" height="20" as="geometry" />
        </mxCell>
        <mxCell id="i2YHMn8cQHAYRBeFqTsy-115" value="}" style="text;html=1;align=center;verticalAlign=middle;whiteSpace=wrap;rounded=0;" vertex="1" parent="1">
          <mxGeometry x="910" y="490" width="20" height="20" as="geometry" />
        </mxCell>
        <mxCell id="i2YHMn8cQHAYRBeFqTsy-119" style="edgeStyle=orthogonalEdgeStyle;rounded=0;orthogonalLoop=1;jettySize=auto;html=1;entryX=0.5;entryY=0;entryDx=0;entryDy=0;" edge="1" parent="1" source="i2YHMn8cQHAYRBeFqTsy-116" target="i2YHMn8cQHAYRBeFqTsy-118">
          <mxGeometry relative="1" as="geometry">
            <Array as="points">
              <mxPoint x="1085" y="412" />
            </Array>
          </mxGeometry>
        </mxCell>
        <mxCell id="i2YHMn8cQHAYRBeFqTsy-127" style="edgeStyle=orthogonalEdgeStyle;rounded=0;orthogonalLoop=1;jettySize=auto;html=1;entryX=0.5;entryY=0;entryDx=0;entryDy=0;" edge="1" parent="1" source="i2YHMn8cQHAYRBeFqTsy-116" target="i2YHMn8cQHAYRBeFqTsy-126">
          <mxGeometry relative="1" as="geometry">
            <Array as="points">
              <mxPoint x="1320" y="412" />
            </Array>
          </mxGeometry>
        </mxCell>
        <mxCell id="i2YHMn8cQHAYRBeFqTsy-116" value="else if (starIdx != string::npos)" style="rhombus;whiteSpace=wrap;html=1;" vertex="1" parent="1">
          <mxGeometry x="1100" y="392" width="200" height="40" as="geometry" />
        </mxCell>
        <mxCell id="i2YHMn8cQHAYRBeFqTsy-123" style="edgeStyle=orthogonalEdgeStyle;rounded=0;orthogonalLoop=1;jettySize=auto;html=1;entryX=0.5;entryY=0;entryDx=0;entryDy=0;" edge="1" parent="1" source="i2YHMn8cQHAYRBeFqTsy-118" target="i2YHMn8cQHAYRBeFqTsy-122">
          <mxGeometry relative="1" as="geometry" />
        </mxCell>
        <mxCell id="i2YHMn8cQHAYRBeFqTsy-118" value="maskPos = starIdx + 1;" style="rounded=0;whiteSpace=wrap;html=1;" vertex="1" parent="1">
          <mxGeometry x="1020" y="431" width="130" height="20" as="geometry" />
        </mxCell>
        <mxCell id="i2YHMn8cQHAYRBeFqTsy-120" value="1" style="text;html=1;align=center;verticalAlign=middle;whiteSpace=wrap;rounded=0;" vertex="1" parent="1">
          <mxGeometry x="1090" y="392" width="20" height="20" as="geometry" />
        </mxCell>
        <mxCell id="i2YHMn8cQHAYRBeFqTsy-121" value="0" style="text;html=1;align=center;verticalAlign=middle;whiteSpace=wrap;rounded=0;" vertex="1" parent="1">
          <mxGeometry x="1300" y="391" width="20" height="20" as="geometry" />
        </mxCell>
        <mxCell id="i2YHMn8cQHAYRBeFqTsy-125" style="edgeStyle=orthogonalEdgeStyle;rounded=0;orthogonalLoop=1;jettySize=auto;html=1;" edge="1" parent="1" source="i2YHMn8cQHAYRBeFqTsy-122">
          <mxGeometry relative="1" as="geometry">
            <mxPoint x="1200" y="510" as="targetPoint" />
            <Array as="points">
              <mxPoint x="1085" y="510" />
              <mxPoint x="1200" y="510" />
            </Array>
          </mxGeometry>
        </mxCell>
        <mxCell id="i2YHMn8cQHAYRBeFqTsy-122" value="wordPos = ++matchIdx;" style="rounded=0;whiteSpace=wrap;html=1;" vertex="1" parent="1">
          <mxGeometry x="1020" y="471" width="130" height="20" as="geometry" />
        </mxCell>
        <mxCell id="i2YHMn8cQHAYRBeFqTsy-124" value="{" style="text;html=1;align=center;verticalAlign=middle;whiteSpace=wrap;rounded=0;" vertex="1" parent="1">
          <mxGeometry x="1060" y="410" width="20" height="20" as="geometry" />
        </mxCell>
        <mxCell id="i2YHMn8cQHAYRBeFqTsy-128" style="edgeStyle=orthogonalEdgeStyle;rounded=0;orthogonalLoop=1;jettySize=auto;html=1;" edge="1" parent="1" source="i2YHMn8cQHAYRBeFqTsy-126">
          <mxGeometry relative="1" as="geometry">
            <mxPoint x="1200" y="510" as="targetPoint" />
            <Array as="points">
              <mxPoint x="1320" y="510" />
              <mxPoint x="1200" y="510" />
            </Array>
          </mxGeometry>
        </mxCell>
        <mxCell id="i2YHMn8cQHAYRBeFqTsy-126" value="return false;" style="rounded=0;whiteSpace=wrap;html=1;" vertex="1" parent="1">
          <mxGeometry x="1280" y="432" width="80" height="20" as="geometry" />
        </mxCell>
        <mxCell id="i2YHMn8cQHAYRBeFqTsy-129" value="}" style="text;html=1;align=center;verticalAlign=middle;whiteSpace=wrap;rounded=0;" vertex="1" parent="1">
          <mxGeometry x="1090" y="490" width="20" height="20" as="geometry" />
        </mxCell>
        <mxCell id="i2YHMn8cQHAYRBeFqTsy-130" value="" style="endArrow=classic;html=1;rounded=0;" edge="1" parent="1">
          <mxGeometry width="50" height="50" relative="1" as="geometry">
            <mxPoint x="1200" y="510" as="sourcePoint" />
            <mxPoint x="1060" y="520" as="targetPoint" />
            <Array as="points">
              <mxPoint x="1200" y="520" />
            </Array>
          </mxGeometry>
        </mxCell>
        <mxCell id="i2YHMn8cQHAYRBeFqTsy-132" value="" style="endArrow=classic;html=1;rounded=0;" edge="1" parent="1">
          <mxGeometry width="50" height="50" relative="1" as="geometry">
            <mxPoint x="1060" y="520" as="sourcePoint" />
            <mxPoint x="850" y="530" as="targetPoint" />
            <Array as="points">
              <mxPoint x="1060" y="530" />
            </Array>
          </mxGeometry>
        </mxCell>
        <mxCell id="i2YHMn8cQHAYRBeFqTsy-134" value="" style="endArrow=classic;html=1;rounded=0;" edge="1" parent="1">
          <mxGeometry width="50" height="50" relative="1" as="geometry">
            <mxPoint x="850" y="530" as="sourcePoint" />
            <mxPoint x="850" y="230" as="targetPoint" />
            <Array as="points">
              <mxPoint x="850" y="550" />
              <mxPoint x="600" y="550" />
              <mxPoint x="600" y="230" />
            </Array>
          </mxGeometry>
        </mxCell>
        <mxCell id="i2YHMn8cQHAYRBeFqTsy-135" value="}" style="text;html=1;align=center;verticalAlign=middle;whiteSpace=wrap;rounded=0;" vertex="1" parent="1">
          <mxGeometry x="850" y="530" width="20" height="20" as="geometry" />
        </mxCell>
        <mxCell id="i2YHMn8cQHAYRBeFqTsy-136" value="{" style="text;html=1;align=center;verticalAlign=middle;whiteSpace=wrap;rounded=0;" vertex="1" parent="1">
          <mxGeometry x="807" y="270" width="20" height="20" as="geometry" />
        </mxCell>
        <mxCell id="i2YHMn8cQHAYRBeFqTsy-137" value="1" style="text;html=1;align=center;verticalAlign=middle;whiteSpace=wrap;rounded=0;" vertex="1" parent="1">
          <mxGeometry x="827" y="270" width="20" height="20" as="geometry" />
        </mxCell>
        <mxCell id="i2YHMn8cQHAYRBeFqTsy-138" value="0" style="text;html=1;align=center;verticalAlign=middle;whiteSpace=wrap;rounded=0;" vertex="1" parent="1">
          <mxGeometry x="950" y="240" width="20" height="20" as="geometry" />
        </mxCell>
        <mxCell id="i2YHMn8cQHAYRBeFqTsy-148" style="edgeStyle=orthogonalEdgeStyle;rounded=0;orthogonalLoop=1;jettySize=auto;html=1;entryX=0.5;entryY=0;entryDx=0;entryDy=0;exitX=1;exitY=0.75;exitDx=0;exitDy=0;" edge="1" parent="1" source="i2YHMn8cQHAYRBeFqTsy-139" target="i2YHMn8cQHAYRBeFqTsy-147">
          <mxGeometry relative="1" as="geometry">
            <mxPoint x="1550" y="552" as="sourcePoint" />
            <Array as="points">
              <mxPoint x="1521" y="552" />
              <mxPoint x="1540" y="552" />
              <mxPoint x="1540" y="570" />
              <mxPoint x="1532" y="570" />
            </Array>
          </mxGeometry>
        </mxCell>
        <mxCell id="i2YHMn8cQHAYRBeFqTsy-152" style="edgeStyle=orthogonalEdgeStyle;rounded=0;orthogonalLoop=1;jettySize=auto;html=1;entryX=0.5;entryY=0;entryDx=0;entryDy=0;" edge="1" parent="1" source="i2YHMn8cQHAYRBeFqTsy-139" target="i2YHMn8cQHAYRBeFqTsy-140">
          <mxGeometry relative="1" as="geometry" />
        </mxCell>
        <mxCell id="i2YHMn8cQHAYRBeFqTsy-139" value="while (maskPos &amp;lt; mask.size() &amp;amp;&amp;amp; mask[maskPos] == &#39;*&#39;)" style="shape=hexagon;perimeter=hexagonPerimeter2;whiteSpace=wrap;html=1;fixedSize=1;" vertex="1" parent="1">
          <mxGeometry x="1200" y="542" width="330" height="20" as="geometry" />
        </mxCell>
        <mxCell id="i2YHMn8cQHAYRBeFqTsy-153" style="edgeStyle=orthogonalEdgeStyle;rounded=0;orthogonalLoop=1;jettySize=auto;html=1;" edge="1" parent="1" source="i2YHMn8cQHAYRBeFqTsy-140">
          <mxGeometry relative="1" as="geometry">
            <mxPoint x="1360" y="530" as="targetPoint" />
            <Array as="points">
              <mxPoint x="1365" y="610" />
              <mxPoint x="1190" y="610" />
              <mxPoint x="1190" y="530" />
            </Array>
          </mxGeometry>
        </mxCell>
        <mxCell id="i2YHMn8cQHAYRBeFqTsy-140" value="maskPos++;" style="rounded=0;whiteSpace=wrap;html=1;" vertex="1" parent="1">
          <mxGeometry x="1325" y="585" width="80" height="20" as="geometry" />
        </mxCell>
        <mxCell id="i2YHMn8cQHAYRBeFqTsy-147" value="return maskPos == mask.size();" style="ellipse;whiteSpace=wrap;html=1;" vertex="1" parent="1">
          <mxGeometry x="1430" y="585" width="205" height="30" as="geometry" />
        </mxCell>
        <mxCell id="i2YHMn8cQHAYRBeFqTsy-149" value="0" style="text;html=1;align=center;verticalAlign=middle;whiteSpace=wrap;rounded=0;" vertex="1" parent="1">
          <mxGeometry x="1522.5" y="530" width="20" height="20" as="geometry" />
        </mxCell>
        <mxCell id="i2YHMn8cQHAYRBeFqTsy-150" value="}" style="text;html=1;align=center;verticalAlign=middle;whiteSpace=wrap;rounded=0;" vertex="1" parent="1">
          <mxGeometry x="1634" y="590" width="20" height="20" as="geometry" />
        </mxCell>
      </root>
    </mxGraphModel>
  </diagram>
</mxfile>
